<?xml version="1.0" encoding="UTF-8" standalone="no"?>
<svg
   xmlns:dc="http://purl.org/dc/elements/1.1/"
   xmlns:cc="http://creativecommons.org/ns#"
   xmlns:rdf="http://www.w3.org/1999/02/22-rdf-syntax-ns#"
   xmlns:svg="http://www.w3.org/2000/svg"
   xmlns="http://www.w3.org/2000/svg"
   xmlns:sodipodi="http://sodipodi.sourceforge.net/DTD/sodipodi-0.dtd"
   xmlns:inkscape="http://www.inkscape.org/namespaces/inkscape"
   width="37.971523mm"
   height="26.533077mm"
   viewBox="0 0 37.971523 26.533077"
   version="1.1"
   id="svg8"
   inkscape:version="1.0.2 (e86c8708, 2021-01-15)">
  <defs
     id="defs2">
    <rect
       x="93.662498"
       y="88.503128"
       width="14.155208"
       height="20.902082"
       id="rect946" />
  </defs>
  <sodipodi:namedview
     id="base"
     pagecolor="#ffffff"
     bordercolor="#666666"
     borderopacity="1.0"
     inkscape:pageopacity="0.0"
     inkscape:pageshadow="2"
     inkscape:zoom="0.86319734"
     inkscape:cx="57.526406"
     inkscape:cy="-7.2445851"
     inkscape:document-units="px"
     inkscape:current-layer="text944"
     inkscape:document-rotation="0"
     showgrid="false"
     inkscape:object-nodes="true"
     showguides="false"
     inkscape:snap-smooth-nodes="false"
     showborder="true"
     fit-margin-top="0"
     fit-margin-left="0"
     fit-margin-right="0"
     fit-margin-bottom="0"
     inkscape:window-width="1801"
     inkscape:window-height="1035"
     inkscape:window-x="42"
     inkscape:window-y="23"
     inkscape:window-maximized="0" />
  <metadata
     id="metadata5">
    <rdf:RDF>
      <cc:Work
         rdf:about="">
        <dc:format>image/svg+xml</dc:format>
        <dc:type
           rdf:resource="http://purl.org/dc/dcmitype/StillImage" />
        <dc:title></dc:title>
      </cc:Work>
    </rdf:RDF>
  </metadata>
  <g
     inkscape:label="Layer 1"
     inkscape:groupmode="layer"
     id="layer1"
     transform="translate(-44.713845,-96.854623)">
    <path
       id="path925"
       style="fill:none;stroke:#000000;stroke-width:1.32292;stroke-linecap:round;stroke-linejoin:round;stroke-miterlimit:4;stroke-dasharray:none;stroke-opacity:1"
       d="m 45.375305,113.72996 c 0,0 7.833749,-8.99628 17.018684,-8.99628 11.459297,0 16.517474,8.00878 16.319731,8.36258 m -33.338415,0.6337 c 0,0 7.833749,8.99628 17.018684,8.99628 11.459297,0 16.517474,-8.00878 16.319731,-8.36258" />
    <path
       style="fill:none;stroke:#000000;stroke-width:1.32292;stroke-linecap:round;stroke-linejoin:round;stroke-miterlimit:4;stroke-dasharray:none;stroke-opacity:1"
       d="m 71.135532,105.89224 c 3.709321,-2.52307 3.554766,-6.149996 3.554766,-6.149996 v 0"
       id="path927" />
    <path
       style="fill:none;stroke:#000000;stroke-width:1.32292;stroke-linecap:round;stroke-linejoin:round;stroke-miterlimit:4;stroke-dasharray:none;stroke-opacity:1"
       d="m 67.335392,104.79432 c 3.521295,-2.77946 3.110231,-6.386331 3.110231,-6.386331 v 0"
       id="path929" />
    <path
       style="fill:none;stroke:#000000;stroke-width:1.32292;stroke-linecap:round;stroke-linejoin:round;stroke-miterlimit:4;stroke-dasharray:none;stroke-opacity:1"
       d="m 63.479424,104.37656 c 2.92991,-3.39714 1.841904,-6.860477 1.841904,-6.860477 v 0"
       id="path931" />
    <path
       style="fill:none;stroke:#000000;stroke-width:1.32292;stroke-linecap:round;stroke-linejoin:round;stroke-miterlimit:4;stroke-dasharray:none;stroke-opacity:1"
       d="m 74.690217,107.76313 c 3.709321,-2.52307 3.554766,-6.15 3.554766,-6.15 v 0"
       id="path933" />
    <path
       style="fill:none;stroke:#000000;stroke-width:1.32292;stroke-linecap:round;stroke-linejoin:round;stroke-miterlimit:4;stroke-dasharray:none;stroke-opacity:1"
       d="m 77.646483,110.29166 c 4.024839,-1.98131 4.377424,-5.59437 4.377424,-5.59437 v 0"
       id="path935" />
    <circle
       style="fill:none;fill-opacity:1;stroke:#000000;stroke-width:1.32292;stroke-linecap:round;stroke-linejoin:round;stroke-miterlimit:4;stroke-dasharray:none;stroke-opacity:1"
       id="path937"
       cx="63.110584"
       cy="113.72996"
       r="6.8287363" />
    <circle
       style="fill:none;fill-opacity:1;stroke:#000000;stroke-width:1.32292;stroke-linecap:round;stroke-linejoin:round;stroke-miterlimit:4;stroke-dasharray:none;stroke-opacity:1"
       id="path942"
       cx="20.709694"
       cy="14.376709"
       r="1.4499372" />
    <g
       aria-label="?"
       transform="matrix(3.1162226,0.60321593,-0.60321593,3.1162226,-154.74304,-247.06887)"
       id="text944"
       style="font-style:normal;font-variant:normal;font-weight:normal;font-stretch:normal;font-size:10.5833px;line-height:1.25;font-family:'PT Mono';-inkscape-font-specification:'PT Mono';white-space:pre;shape-inside:url(#rect946);fill:#000000;fill-opacity:1;stroke:none;stroke-width:0.265078;stroke-miterlimit:4;stroke-dasharray:none">
      <path
         d="m 200.20491,130.22259 c 0,0 -0.13644,0.19481 -0.33603,0.19691 -0.19993,0.002 -0.31664,-0.19691 -0.31664,-0.19691 v -0.55943 c 0,-0.17404 0.0186,-0.32944 0.0559,-0.46619 0.0435,-0.14297 0.0994,-0.27039 0.16783,-0.38228 0.0746,-0.11189 0.1554,-0.21134 0.24242,-0.29836 0.0932,-0.0932 0.18648,-0.18337 0.27971,-0.27039 l 0.26107,-0.2331 c 0.1554,-0.12432 0.28283,-0.26729 0.38228,-0.4289 0.10567,-0.16161 0.15851,-0.36363 0.15851,-0.60605 0,-0.17405 -0.0311,-0.32944 -0.0932,-0.46619 -0.0622,-0.13675 -0.14608,-0.25175 -0.25175,-0.34499 -0.10567,-0.0932 -0.22999,-0.16472 -0.37295,-0.21444 -0.13675,-0.0497 -0.28593,-0.0746 -0.44755,-0.0746 -0.33566,0 -0.60916,0.10256 -0.8205,0.30768 -0.20512,0.20513 -0.33255,0.4662 -0.38228,0.78321 0,0 -0.18573,0.20031 -0.37946,0.16239 -0.18918,-0.037 -0.25456,-0.27428 -0.25456,-0.27428 0.0932,-0.48484 0.30458,-0.86401 0.63402,-1.13751 0.33566,-0.27972 0.74591,-0.41957 1.23075,-0.41957 0.24864,0 0.48174,0.0373 0.69929,0.11188 0.22378,0.0684 0.41647,0.17405 0.57808,0.31701 0.16162,0.13675 0.28904,0.30769 0.38228,0.51282 0.0995,0.20512 0.14918,0.43822 0.14918,0.69928 0,0.19891 -0.0217,0.37296 -0.0653,0.52214 -0.0435,0.14918 -0.10567,0.28283 -0.18647,0.40093 -0.0746,0.1181 -0.16473,0.22688 -0.2704,0.32633 -0.10567,0.0932 -0.21755,0.18959 -0.33566,0.28904 -0.13053,0.10567 -0.24242,0.20202 -0.33565,0.28904 -0.087,0.087 -0.15851,0.18026 -0.21445,0.27972 -0.0559,0.0932 -0.0964,0.19891 -0.12121,0.31701 -0.0249,0.1181 -0.0373,0.26107 -0.0373,0.4289 z m 0.24242,1.34264 c 0,0.13053 -0.0466,0.24864 -0.13986,0.35431 -0.0932,0.0995 -0.21445,0.14918 -0.36363,0.14918 -0.14918,0 -0.27039,-0.0497 -0.36363,-0.14918 -0.0932,-0.10567 -0.13986,-0.22378 -0.13986,-0.35431 0,-0.13053 0.0466,-0.24553 0.13986,-0.34498 0.0932,-0.10567 0.21445,-0.15851 0.36363,-0.15851 0.14918,0 0.27039,0.0528 0.36363,0.15851 0.0932,0.0995 0.13986,0.21445 0.13986,0.34498 z"
         style="font-style:normal;font-variant:normal;font-weight:normal;font-stretch:normal;font-family:'Avenir Next';-inkscape-font-specification:'Avenir Next weight=280';stroke-width:0.256742;stroke-miterlimit:4;stroke-dasharray:none"
         id="path950"
         sodipodi:nodetypes="cscsccscccssscsccsccscccsscccccsscscscscscs" />
      <text
         xml:space="preserve"
         style="font-style:normal;font-variant:normal;font-weight:normal;font-stretch:normal;font-size:3.33431px;line-height:1.25;font-family:'Kohinoor Bangla';-inkscape-font-specification:'Kohinoor Bangla';fill:#000000;fill-opacity:1;stroke:none;stroke-width:0.0220963"
         x="46.286751"
         y="83.965118"
         id="text955"
         transform="rotate(-10.95541)"><tspan
           id="tspan953"
           x="46.286751"
           y="83.965118"
           style="font-style:normal;font-variant:normal;font-weight:normal;font-stretch:normal;font-family:'Kohinoor Bangla';-inkscape-font-specification:'Kohinoor Bangla';stroke-width:0.0220963"
           sodipodi:role="line">?</tspan></text>
      <g
         aria-label="?"
         transform="rotate(-10.955409,-0.00118958,-0.01227103)"
         id="text959"
         style="font-style:normal;font-variant:normal;font-weight:300;font-stretch:normal;font-size:4.68499px;line-height:1.25;font-family:'Kohinoor Bangla';-inkscape-font-specification:'Kohinoor Bangla Light';fill:#000000;fill-opacity:1;stroke:none;stroke-width:0.0220963">
        <path
           d="m 68.614365,112.26995 c 0.332634,0 0.520034,0.17803 0.520034,0.49193 0,0.59968 -0.857353,0.89952 -0.857353,1.21341 0,0.0937 0.06091,0.14524 0.13118,0.17335 l 0.524718,-0.49661 c 0.248305,-0.23894 0.491924,-0.47319 0.491924,-0.92763 0,-0.4685 -0.323264,-0.71681 -0.815188,-0.71681 -0.435704,0 -0.632473,0.13587 -0.763653,0.24831 0,0 -0.02489,0.0782 0.03982,0.15623 0.06584,0.0794 0.140852,0.0565 0.140852,0.0565 0.107755,-0.10307 0.264402,-0.19869 0.587666,-0.19869 z m -0.257674,2.82505 c 0,0.13118 0.107754,0.23894 0.238934,0.23894 0.14055,0 0.248305,-0.10776 0.248305,-0.23894 0,-0.14055 -0.107755,-0.2483 -0.248305,-0.2483 -0.13118,0 -0.238934,0.10775 -0.238934,0.2483 z"
           style="font-style:normal;font-variant:normal;font-weight:300;font-stretch:normal;font-family:'Kohinoor Bangla';-inkscape-font-specification:'Kohinoor Bangla Light';stroke-width:0.0220963"
           id="path961"
           sodipodi:nodetypes="sssccsscscsssssss" />
      </g>
    </g>
  </g>
</svg>
